<svg xmlns="http://www.w3.org/2000/svg" id="Layer_1" data-name="Layer 1" viewBox="0 0 1977.79 193.51"><defs><style>.cls-1{fill:#3b3b3b}</style></defs><path class="cls-1" d="M95.9 214.55a14.9 14.9 0 00-4 6.81 43.85 43.85 0 00-1.52 12.9q0 8.16 1.52 12.55a16.07 16.07 0 004.29 6.83 14.63 14.63 0 007 3.33c2.11.44 6.22.67 12.39.67h6.78v-46.7h-11.23a42.5 42.5 0 00-9.12.68 14.4 14.4 0 00-6.11 2.93z" transform="translate(-46.84 -136.49)"></path><path class="cls-1" d="M143.35 136.49a96.76 96.76 0 1096.49 96.75 96.63 96.63 0 00-96.49-96.75zm-5.85 133.06h-27.59c-6.21 0-11-.44-14.25-1.33a25.18 25.18 0 01-11.26-6.49 30.48 30.48 0 01-7.15-11.42 49.66 49.66 0 01-2.45-16.67 43.73 43.73 0 012.31-15 30.89 30.89 0 018-12.46 27 27 0 0110.62-5.61 48.06 48.06 0 0113.36-1.5h28.41zm70.36-19.22a30.77 30.77 0 01-8 12.46 26.61 26.61 0 01-10.61 5.62 48.47 48.47 0 01-13.37 1.48h-28.43v-70.48h27.61c6.23 0 11 .45 14.23 1.35a25.33 25.33 0 0111.28 6.49 30.47 30.47 0 017.14 11.41 49.35 49.35 0 012.45 16.66 43.58 43.58 0 01-2.3 15.01z" transform="translate(-46.84 -136.49)"></path><path class="cls-1" d="M188.73 215.33a14.7 14.7 0 00-7-3.33c-2.14-.44-6.26-.67-12.41-.67h-6.79v46.72h11.28a42.24 42.24 0 009.12-.7 14.19 14.19 0 006.1-2.93c1.61-1.37 2.94-3.64 4-6.82a43.7 43.7 0 001.52-12.91q0-8.16-1.52-12.54a16.06 16.06 0 00-4.3-6.82zM493.45 273.91a39.6 39.6 0 01-37.74-32l78.46-.72v-.11h3.24l16.31-14.95v-.1l-19.69.13v-.09l-78.32.71a39.59 39.59 0 0139.7-32l.07-3.48v3.46l46.52-.16 16.36-15.09v-.11l-62.87.2a54.73 54.73 0 00-2 109.44l46.28-.15L556 273.82v-.11zM418.82 235.36a54.8 54.8 0 00-54.42-54.73v-.07l-73.48.15v15.15l.7 93.91 15.15-.11-.7-93.83 57.93-.12v.06a39.59 39.59 0 110 79.17h-38.77L311.39 290v.1h53a54.79 54.79 0 0054.43-54.74z" transform="translate(-46.84 -136.49)"></path><path class="cls-1" transform="rotate(-.39 -19351.907 7046.215)" d="M720.07 178.36h15.15v112.11h-15.15z"></path><path class="cls-1" d="M882.73 290.08l-.18-63.26h-9.8l-31.54-.18-.09 15.14 26.33.16.09 33-50.37-.06v-.23a39.58 39.58 0 111.69-79.15l45.79-.14L881 180.27v-.11l-62.87.2a54.72 54.72 0 00-1.51 109.42v.25l54.55.07z" transform="translate(-46.84 -136.49)"></path><path class="cls-1" d="M961.24 120.5l.12-.13-78.68-74.5v-.05h-.05l-.45-.43-.41.44-14.24.09.75 108.11 15.15-.1-.61-87.06 68.13 64.5.15-.15 23.79 22.04 22.25.65.08-.08-35.98-33.33z"></path><path class="cls-1" d="M656 226.85v-.16l-55.43.3v-.12c-7.62.25-14.05-7-14.34-16a18 18 0 014-12.1 12.71 12.71 0 019.33-4.8v-.23l39.88-.09 35.1-.11 16.37-15.1v-.11l-62.87.2-28.78.06v5.83l-.18-5.59A27.61 27.61 0 00578.59 189a33 33 0 00-7.49 22.29c.54 17.05 13.42 30.6 28.94 30.7v.12l55.89-.3v.19a12.66 12.66 0 019.47 4.51 17.87 17.87 0 014.36 12c0 9.09-6.2 16.48-13.83 16.48l-37.82.21v.05l-35.1.24-16.31 15.14v.1l62.87-.42 28.78-.16V290c14.85-1.34 26.56-15 26.56-31.51a33 33 0 00-8.19-22 27.63 27.63 0 00-20.72-9.64z" transform="translate(-46.84 -136.49)"></path><path class="cls-1" d="M998.14 96.29h-.1V42.63h-15.15v54.05h.1l.2 38.58 15.11 13.68h.11l-.27-52.65z"></path><path class="cls-1" d="M1202.83 235.36a54.8 54.8 0 00-54.41-54.73v-.07l-73.48.15v15.15l.69 93.91 15.15-.11-.69-93.83 57.93-.12v.06a39.59 39.59 0 010 79.17h-38.85L1095.41 290v.1h53a54.78 54.78 0 0054.42-54.74z" transform="translate(-46.84 -136.49)"></path><path class="cls-1" transform="rotate(-.39 -18843.587 7046.476)" d="M1230.62 178.36h15.15v112.11h-15.15z"></path><rect class="cls-1" x="1269.32" y="236.95" width="110.74" height="15.71" rx="7.85" transform="rotate(55 1432.384 131.584)"></rect><rect class="cls-1" x="1320.61" y="234.99" width="110.74" height="15.71" rx="7.85" transform="rotate(120 1391.962 161.077)"></rect><path class="cls-1" d="M1488.05 274.67a39.66 39.66 0 01-37.73-32l46.79-.43 34.9-.11 16.36-15.09V227l-19.74.06v-.19l-31.66.29h-11.47v.07l-35.19.32a39.57 39.57 0 0139.7-32l.07-3.48v3.46l46.46-.15 16.37-15.09v-.11l-62.87.2a54.73 54.73 0 00-2 109.44l46.28-.15 16.36-15.1v-.1zM1653.12 248.28l-.13.14-6.15-5.82 19.15-.21v.08c16-.16 28.84-14.47 28.67-31.91a33.06 33.06 0 00-8.4-22 27.72 27.72 0 00-19.7-9.35v-.13h-70.44v-.05l-15.15.1.76 112.11 15.15-.1-.66-96.91h69.3v.11h.11a12.7 12.7 0 019.41 4.41 17.9 17.9 0 014.47 11.92c.09 9.08-6 16.53-13.67 16.61v.38l-55.57.62v.11l11.73 11.48 2.94 2.78.15.15 40.84 38.65.12-.13 10.41 9.86 22.26.37.07-.08zM1808.94 226.85v-.16l-55.44.3v-.12c-7.6.25-14-7-14.34-16a18 18 0 014-12.1 12.7 12.7 0 019.33-4.8v-.23l39.88-.09 35.1-.11 16.37-15.1v-.11l-62.88.2-28.77.06v5.84l-.18-5.6A27.63 27.63 0 001731.5 189a33.09 33.09 0 00-7.48 22.29c.54 17.05 13.42 30.6 28.94 30.7v.12l55.89-.3v.19a12.66 12.66 0 019.47 4.51 17.93 17.93 0 014.36 12c0 9.09-6.2 16.48-13.83 16.48l-37.82.21v.05l-35.1.24-16.31 15.15v.1l62.87-.42 28.78-.16V290c14.86-1.34 26.57-15 26.57-31.51a33.08 33.08 0 00-8.19-22 27.63 27.63 0 00-20.71-9.64zM1970.65 177.4v-.12l-54.06-.28v.11a56.72 56.72 0 00-2.95 113.39v.12l54.95.38v-.23a56.72 56.72 0 002-113.37zm-2.24 97.68v.22l-53.79-.37v-.1a41 41 0 111.75-82l.17-8.1v8l50.89.27h.51a41 41 0 01.5 82z" transform="translate(-46.84 -136.49)"></path><path class="cls-1" d="M1221.54 41.87l26.9 38.27 12.85-9.03-20.55-29.24h-19.2zM1357.3 41.87l-15.71 27.34 13.62 7.82 20.2-35.16h-18.11z"></path></svg>