<?xml version="1.0" encoding="UTF-8"?> <svg xmlns="http://www.w3.org/2000/svg" width="255" height="31.0814" viewBox="0 0 255 31.0814"><path d="M5.4039,17.372v.9069a5.8274,5.8274,0,0,0,.145,1.4507,1.58,1.58,0,0,0,.5259.8521A2.1642,2.1642,0,0,0,7.09,20.999a9.5653,9.5653,0,0,0,1.5776.1087H30.8612v4.0982H8.6679q-4.6785,0-6.6732-1.7772T0,17.7348V13.2013A13.3872,13.3872,0,0,1,.417,9.5928,4.72,4.72,0,0,1,1.8677,7.2355,6.3472,6.3472,0,0,1,4.6059,5.948a19.4148,19.4148,0,0,1,4.3159-.3991h9.5021a12.9759,12.9759,0,0,1,3.5.3991,5.7583,5.7583,0,0,1,2.2124,1.1059,3.7764,3.7764,0,0,1,1.1424,1.7048,6.9006,6.9006,0,0,1,.3264,2.1578V17.372Zm14.7971-6.02a1.4687,1.4687,0,0,0-.49-1.3057A3.2861,3.2861,0,0,0,17.9887,9.72H8.9943A13.4779,13.4779,0,0,0,7.29,9.81a2.2384,2.2384,0,0,0-1.1061.4173,1.7965,1.7965,0,0,0-.5985.9428,6.1263,6.1263,0,0,0-.1812,1.6685V13.89H20.201Zm29.2675,13.854V14.2532a8.3724,8.3724,0,0,0-.1993-2.0129,2.4707,2.4707,0,0,0-.6893-1.2332,2.79,2.79,0,0,0-1.3417-.6347,10.6811,10.6811,0,0,0-2.1581-.1812H39.2049a10.4508,10.4508,0,0,0-2.1216.1812,2.9114,2.9114,0,0,0-1.36.6347,2.3989,2.3989,0,0,0-.7074,1.2332,8.3469,8.3469,0,0,0-.1993,2.0129V25.2059H29.4126V14.0719a15.0875,15.0875,0,0,1,.4533-3.9894A5.449,5.449,0,0,1,31.4073,7.453a6.5646,6.5646,0,0,1,2.9013-1.4506,19.0791,19.0791,0,0,1,4.5336-.4535h6.5644a19.2724,19.2724,0,0,1,4.57.4535A6.5673,6.5673,0,0,1,52.8777,7.453a5.4537,5.4537,0,0,1,1.5414,2.6295,15.1168,15.1168,0,0,1,.4533,3.9894v11.134ZM64.2656,17.372v.9069a5.8274,5.8274,0,0,0,.145,1.4507,1.58,1.58,0,0,0,.526.8521,2.1638,2.1638,0,0,0,1.0155.4173,9.5631,9.5631,0,0,0,1.5775.1087h21.506v4.0982H67.53q-4.6785,0-6.6731-1.7772t-1.9948-5.6939V13.2013a13.3828,13.3828,0,0,1,.4171-3.6085,4.72,4.72,0,0,1,1.4506-2.3573A6.3478,6.3478,0,0,1,63.4676,5.948a19.4148,19.4148,0,0,1,4.3159-.3991h9.5021a12.9754,12.9754,0,0,1,3.5.3991,5.7575,5.7575,0,0,1,2.2124,1.1059A3.7756,3.7756,0,0,1,84.14,8.7587a6.8977,6.8977,0,0,1,.3264,2.1578V17.372Zm14.7971-6.02a1.4687,1.4687,0,0,0-.49-1.3057A3.2864,3.2864,0,0,0,76.8505,9.72H67.856a13.4751,13.4751,0,0,0-1.7045.0906,2.2391,2.2391,0,0,0-1.1062.4173,1.7957,1.7957,0,0,0-.5984.9428,6.1218,6.1218,0,0,0-.1813,1.6685V13.89H79.0627Zm9.1394,13.854V13.8179a12.2611,12.2611,0,0,1,.5079-3.7717,5.7648,5.7648,0,0,1,1.6139-2.5569,6.8452,6.8452,0,0,1,2.847-1.4688,16.4516,16.4516,0,0,1,4.2432-.4716h3.5181V9.9374H97.5593a8.3037,8.3037,0,0,0-1.886.1813,2.5747,2.5747,0,0,0-1.2149.6166,2.4831,2.4831,0,0,0-.6528,1.1966,7.7373,7.7373,0,0,0-.2,1.9222V25.2059Zm39.06-5.2226a10.1061,10.1061,0,0,1-.2537,2.4482,2.9957,2.9957,0,0,1-.9976,1.6138,4.6411,4.6411,0,0,1-2.031.8888,16.7908,16.7908,0,0,1-3.3544.2718H103.7242V20.9627h16.2115a2.4229,2.4229,0,0,0,1.5235-.3628,1.7384,1.7384,0,0,0,.435-1.3782v-.6528q0-1.0879-.4169-1.36a2.67,2.67,0,0,0-1.3966-.2719H109.0554a9.19,9.19,0,0,1-2.7019-.3266,3.5158,3.5158,0,0,1-1.6138-.9791,3.4189,3.4189,0,0,1-.78-1.6137,11.2669,11.2669,0,0,1-.2-2.267V10.2637a7.6317,7.6317,0,0,1,.272-2.176,3.1679,3.1679,0,0,1,.8885-1.4688,3.7272,3.7272,0,0,1,1.6681-.8163,11.5654,11.5654,0,0,1,2.6476-.2537H140.08V9.6471H110.5423a1.7756,1.7756,0,0,0-1.1421.29,1.3218,1.3218,0,0,0-.3448,1.0516v.9066a1.484,1.484,0,0,0,.3266,1.1244,1.5594,1.5594,0,0,0,1.0516.29h10.6628a12.7165,12.7165,0,0,1,3.0829.3085,4.118,4.118,0,0,1,1.8856.979,3.4974,3.4974,0,0,1,.9432,1.741,11.62,11.62,0,0,1,.2537,2.63ZM147.1,5.5489a19.27,19.27,0,0,1,4.57.4535,6.5677,6.5677,0,0,1,2.9014,1.4506,5.4518,5.4518,0,0,1,1.5412,2.6295,15.1077,15.1077,0,0,1,.4535,3.9894v2.6473a14.8954,14.8954,0,0,1-.4535,3.9713,5.4462,5.4462,0,0,1-1.5412,2.6113,6.5605,6.5605,0,0,1-2.9014,1.4507,19.234,19.234,0,0,1-4.57.4534H136.1474v5.8755h-5.4039V14.0719a15.0784,15.0784,0,0,1,.4535-3.9894,5.4464,5.4464,0,0,1,1.5412-2.6295A6.5635,6.5635,0,0,1,135.64,6.0024a19.2654,19.2654,0,0,1,4.57-.4535Zm4.062,8.668a8.9891,8.9891,0,0,0-.1994-2.1035,2.208,2.208,0,0,0-.7434-1.2331,3.08,3.08,0,0,0-1.4691-.58,15.5972,15.5972,0,0,0-2.3391-.145h-6.02a10.1522,10.1522,0,0,0-2.1035.1813,2.6515,2.6515,0,0,0-1.3057.6347,2.425,2.425,0,0,0-.6528,1.2331,8.9312,8.9312,0,0,0-.1812,1.9767V20.6h10.3a17.2631,17.2631,0,0,0,2.321-.1269,2.9308,2.9308,0,0,0,1.451-.5622,2.2055,2.2055,0,0,0,.7434-1.2332,9.1806,9.1806,0,0,0,.1994-2.14Zm18.75,10.989a19.0421,19.0421,0,0,1-4.5336-.4534,6.5563,6.5563,0,0,1-2.9013-1.4507,5.4416,5.4416,0,0,1-1.5413-2.6113,14.8712,14.8712,0,0,1-.4534-3.9713V14.0719a15.083,15.083,0,0,1,.4534-3.9894,5.4473,5.4473,0,0,1,1.5413-2.6295,6.5635,6.5635,0,0,1,2.9013-1.4506,19.0779,19.0779,0,0,1,4.5336-.4535h6.5642a19.2706,19.2706,0,0,1,4.57.4535,6.4649,6.4649,0,0,1,2.9013,1.4687,5.5665,5.5665,0,0,1,1.5416,2.6476,15.11,15.11,0,0,1,.4532,3.9895v2.611a14.8966,14.8966,0,0,1-.4532,3.9713,5.446,5.446,0,0,1-1.5416,2.6113,6.56,6.56,0,0,1-2.9013,1.4507,19.2346,19.2346,0,0,1-4.57.4534Zm10.6262-10.9527a8.6038,8.6038,0,0,0-.1994-2.031,2.3587,2.3587,0,0,0-.7253-1.2513,2.994,2.994,0,0,0-1.4688-.6166,14.4712,14.4712,0,0,0-2.3938-.1631h-5.1136a14.1288,14.1288,0,0,0-2.3757.1631,2.9709,2.9709,0,0,0-1.4506.6166,2.3493,2.3493,0,0,0-.7254,1.2513,8.5721,8.5721,0,0,0-.1994,2.031v2.321a8.3329,8.3329,0,0,0,.1994,2.0128,2.3367,2.3367,0,0,0,.7254,1.2332,3.09,3.09,0,0,0,1.4506.6347,12.7167,12.7167,0,0,0,2.3757.1812h5.1136a13.024,13.024,0,0,0,2.3938-.1812,3.1114,3.1114,0,0,0,1.4688-.6347,2.3462,2.3462,0,0,0,.7253-1.2332,8.3634,8.3634,0,0,0,.1994-2.0128ZM189.86,25.2059V13.8179a12.2583,12.2583,0,0,1,.5078-3.7717,5.7655,5.7655,0,0,1,1.6138-2.5569,6.8466,6.8466,0,0,1,2.8469-1.4688,16.4544,16.4544,0,0,1,4.2436-.4716H202.59V9.9374h-3.3729a8.3025,8.3025,0,0,0-1.886.1813,2.5741,2.5741,0,0,0-1.215.6166,2.484,2.484,0,0,0-.6529,1.1966,7.758,7.758,0,0,0-.1993,1.9222V25.2059Zm17.0816,0V9.9374h-2.7563V5.5489h2.7563V0h5.5126V5.5489h6.2018V9.9374h-6.2018V25.2059Z" fill="#c3d600"></path><path d="M227.5537,15.361A13.6775,13.6775,0,0,1,244.7031,2.1388a14.38,14.38,0,1,0,0,26.4429A13.6765,13.6765,0,0,1,227.5537,15.361Z" fill="#c3d600"></path><path d="M227.5537,15.361A13.6775,13.6775,0,0,1,244.7031,2.1388a14.38,14.38,0,1,0,0,26.4429A13.6765,13.6765,0,0,1,227.5537,15.361Z" fill="#c3d600"></path><path d="M241.84,2.1374a13.0952,13.0952,0,0,0-5.18,1.0594,12.51,12.51,0,1,1,0,24.2,13.1609,13.1609,0,1,0,5.18-25.26Z" fill="#c3d600"></path><path d="M241.84,2.1374a13.0952,13.0952,0,0,0-5.18,1.0594,12.51,12.51,0,1,1,0,24.2,13.1609,13.1609,0,1,0,5.18-25.26Z" fill="#c3d600"></path><circle cx="243.0717" cy="7.3866" r="2.102" fill="#c3d600"></circle><path d="M245.8248,11.6044a16.0693,16.0693,0,0,0-3.7519-1.7821,6.7006,6.7006,0,0,0-3.1261-.2456,5.6435,5.6435,0,0,0-2.6612,1.2955,12.0018,12.0018,0,0,0-2.3671,2.8765l-5.8714,9.4758,4.4965,2.7861,5.8527-9.4457a7.5771,7.5771,0,0,1,1.157-1.4966,2.4321,2.4321,0,0,1,1.16-.6591,2.5194,2.5194,0,0,1,1.3288.1134,8.1192,8.1192,0,0,1,1.6627.8215l2.8066,1.7389.0429-.0693-2.9653-1.8764Z" fill="#c3d600"></path><path d="M245.8468,11.6176l-.022-.0132-2.2357,3.5329,2.9653,1.8764,2.22-3.5823Z" fill="#c3d600"></path><path d="M245.8468,11.6176l-.022-.0132-2.2357,3.5329,2.9653,1.8764,2.22-3.5823Z" fill="#c3d600"></path><rect x="246.6242" y="14.7943" width="7.515" height="4.3102" transform="translate(47.1838 -130.322) rotate(32.0607)" fill="#c3d600"></rect></svg> 